# xmcd
#
# Track frame offsets:
#	150
#	11910
#	22430
#	33942
#	45017
#	54445
#	64740
#	82020
#	94665
#	106347
#	117825
#	128860
#	140180
#	153952
#
# Disc length: 2168 seconds
#
# Revision: 1
# Processed by: cddbd v1.5.2PL0 Copyright (c) Steve Scherf et al.
# Submitted via: audiograbber 1.83.01
#
DISCID=b908760e
DTITLE=Ann J Morton - The Swing Of Things Ann J Morton
DYEAR=2006
DGENRE=Country
TTITLE0=Black and Blue Heart
TTITLE1=You Don´t Have To Be A Baby To Cry
TTITLE2=I´ll Do It Cause I Love Ya
TTITLE3=No Strings Attached
TTITLE4=It´s Writen All Over Your Face
TTITLE5=Bluberry Hill
TTITLE6=I Love You So Much It Hurts Me
TTITLE7=Poor Wilted Rose
TTITLE8=Twice As Much
TTITLE9=Life Long Love
TTITLE10=I Don´t Want To Take A Chance On Loving You
TTITLE11=Tainted Rose
TTITLE12=Blue, Blue Feeling
TTITLE13=Onions and Love Affairs
EXTD=
EXTT0=
EXTT1=
EXTT2=
EXTT3=
EXTT4=
EXTT5=
EXTT6=
EXTT7=
EXTT8=
EXTT9=
EXTT10=
EXTT11=
EXTT12=
EXTT13=
PLAYORDER=
